<svg width="489" height="481" viewBox="0 0 489 481" fill="none" xmlns="http://www.w3.org/2000/svg">
<g clip-path="url(#clip0)">
<path d="M10.29 195.7C5.28996 223.51 0.399948 251.6 0.0299484 279.93C-0.340052 307.53 4.15994 335.07 16.6499 359.93C28.5299 383.52 46.1699 403.72 64.5899 422.41C74.1399 432.09 83.92 441.58 94.76 449.83C105.618 458.099 117.723 464.587 130.62 469.05C143.47 473.51 156.88 476.05 170.36 477.79C184.372 479.531 198.464 480.549 212.58 480.84C241.22 481.51 270.16 479.13 297.88 471.65C321.88 465.16 344.88 454.7 364.88 439.88C384.22 425.57 400.76 407.37 411.7 385.88C418.2 373.09 422.81 359.46 426.81 345.72C430.92 331.61 434.81 317.38 437.69 302.96C440.626 288.344 441.884 273.441 441.44 258.54C440.83 243.556 438.96 228.65 435.85 213.98C434.39 206.82 432.723 199.717 430.85 192.67C429.85 188.94 424.06 190.52 425.06 194.26C432.55 222.33 437.44 251.64 434.93 280.76C433.68 295.28 430.43 309.55 426.72 323.63C423.14 337.21 419.44 350.83 414.63 364.03C410.317 376.194 404.488 387.765 397.28 398.47C390.712 407.957 383.064 416.648 374.49 424.37C357.031 439.996 336.729 452.116 314.69 460.07C288.69 469.6 261.13 473.88 233.56 474.79C219.574 475.217 205.575 474.913 191.62 473.88C178.226 473.038 164.907 471.263 151.76 468.57C138.69 465.78 125.84 461.63 114.07 455.21C102.3 448.79 92.0699 440.44 82.41 431.4C63.68 413.88 45.41 394.87 31.41 373.34C24.2936 362.633 18.5613 351.067 14.35 338.92C10.0842 326.012 7.47331 312.615 6.57994 299.05C4.57994 271.69 8.11994 244.27 12.5799 217.32C13.6899 210.62 14.87 203.94 16.07 197.26C16.75 193.48 10.9599 191.86 10.2799 195.66L10.29 195.7Z" fill="#FA8072"/>
<path d="M13.18 199.5C17.05 199.5 17.05 193.5 13.18 193.5C9.31 193.5 9.32 199.5 13.18 199.5Z" fill="black"/>
<path d="M92.8601 263.72C87.1801 266.72 81.1001 270.29 79.2501 276.88C78.7686 278.453 78.609 280.106 78.7808 281.742C78.9527 283.378 79.4524 284.962 80.2501 286.4C81.1673 287.795 82.3712 288.979 83.7817 289.872C85.1922 290.765 86.7769 291.347 88.4301 291.58C91.4564 292.076 94.5564 291.87 97.4903 290.977C100.424 290.084 103.113 288.528 105.35 286.43C109.88 282.13 111.57 275.71 109 269.93C106.43 264.15 99.4601 259.67 93.0001 261.93C92.2453 262.16 91.6077 262.671 91.2189 263.358C90.83 264.045 90.7195 264.854 90.9101 265.62C91.0142 266 91.1923 266.356 91.4342 266.668C91.6761 266.979 91.977 267.24 92.3197 267.435C92.6624 267.63 93.0402 267.756 93.4315 267.805C93.8228 267.853 94.2199 267.825 94.6001 267.72C95.09 267.538 95.5954 267.401 96.1101 267.31C95.6101 267.38 96.2501 267.31 96.3801 267.31H97.1301C97.7201 267.31 97.3901 267.31 97.2401 267.31C97.5367 267.361 97.8304 267.428 98.1201 267.51L98.7101 267.7C99.3101 267.9 98.6001 267.61 99.1201 267.87C100.798 268.669 102.193 269.959 103.12 271.57C103.614 272.337 103.954 273.193 104.12 274.09C104.17 274.3 104.22 274.51 104.25 274.71C104.17 274.25 104.25 274.9 104.25 275.02C104.25 275.14 104.25 275.55 104.25 275.81C104.25 275.81 104.19 276.81 104.25 276.28C104.176 276.823 104.056 277.358 103.89 277.88C103.783 278.251 103.646 278.612 103.48 278.96C103.083 279.801 102.575 280.584 101.97 281.29C100.64 282.776 99.0064 283.959 97.1791 284.758C95.3519 285.557 93.3741 285.953 91.3801 285.92C89.3801 285.92 87.1101 285.43 85.7301 283.92C85.2145 283.338 84.8686 282.625 84.7301 281.86C84.5658 280.991 84.5658 280.099 84.7301 279.23C85.8601 274.06 91.2401 271.33 95.7301 268.98C96.0991 268.799 96.427 268.543 96.6933 268.23C96.9596 267.917 97.1586 267.552 97.278 267.159C97.3974 266.765 97.4346 266.351 97.3873 265.943C97.3401 265.534 97.2093 265.14 97.0033 264.784C96.7972 264.428 96.5201 264.118 96.1893 263.874C95.8586 263.63 95.4811 263.456 95.0803 263.364C94.6796 263.272 94.2642 263.263 93.8599 263.338C93.4556 263.413 93.071 263.57 92.7301 263.8L92.8601 263.72Z" fill="#FA8072"/>
<path d="M303.27 259.97C298.16 259.73 292.4 260.07 288.37 263.59C287.298 264.547 286.444 265.724 285.868 267.041C285.291 268.357 285.006 269.783 285.03 271.22C285.193 274.325 286.418 277.28 288.5 279.59C290.583 281.936 293.268 283.668 296.264 284.599C299.261 285.529 302.454 285.623 305.5 284.87C311.22 283.32 315.91 277.73 315.61 271.65C315.27 264.83 308.45 259.26 301.68 261.14C297.96 262.14 299.54 267.96 303.27 266.93C303.866 266.75 304.496 266.709 305.11 266.81C305.914 266.958 306.669 267.302 307.31 267.81C308.514 268.668 309.332 269.964 309.59 271.42C309.763 273.068 309.301 274.72 308.3 276.04C307.355 277.398 306.003 278.42 304.44 278.96C302.524 279.516 300.495 279.55 298.561 279.06C296.627 278.569 294.859 277.572 293.44 276.17C292.819 275.566 292.293 274.871 291.88 274.11C291.689 273.792 291.528 273.458 291.4 273.11C291.318 272.898 291.252 272.681 291.2 272.46C291.2 272.46 291 271.53 291.05 271.94C290.884 271.157 290.968 270.342 291.29 269.61C291.523 269.019 291.897 268.493 292.38 268.08C292.52 267.95 292.66 267.82 292.81 267.7C292.38 268.04 293.13 267.53 293.15 267.51C293.33 267.4 294.4 266.88 294.02 267.04C294.987 266.66 295.993 266.388 297.02 266.23C297.98 266.084 298.949 266 299.92 265.98C301.04 265.98 302.15 265.98 303.27 265.98C304.066 265.98 304.829 265.664 305.391 265.101C305.954 264.539 306.27 263.776 306.27 262.98C306.27 262.184 305.954 261.421 305.391 260.859C304.829 260.296 304.066 259.98 303.27 259.98V259.97Z" fill="#FA8072"/>
<path d="M196.95 291.85C183.47 299.85 168.55 305.65 156.88 316.4C145.54 326.86 138.79 341.13 133.23 355.26C129.66 364.32 126.57 373.57 122.74 382.52C122.39 383.153 122.277 383.889 122.419 384.598C122.562 385.307 122.952 385.942 123.52 386.39C124.094 386.831 124.808 387.049 125.53 387.005C126.252 386.961 126.934 386.657 127.45 386.15C128.654 384.716 129.46 382.993 129.79 381.15C129.978 380.451 129.906 379.707 129.588 379.056C129.27 378.406 128.727 377.892 128.06 377.61C127.392 377.327 126.644 377.295 125.954 377.522C125.265 377.748 124.681 378.216 124.31 378.84C123.578 380.251 122.953 381.715 122.44 383.22C121.54 385.75 124.7 387.88 126.85 386.61C129.46 385.07 133.85 381.69 131.85 378.22C130.42 375.75 127 376 125.27 377.92C124.036 379.509 123.092 381.303 122.48 383.22C121.68 385.22 124.14 387.75 126.17 386.91C130.895 384.909 135.117 381.882 138.53 378.05C141.84 374.45 144.66 370.39 147.67 366.62C154.09 358.57 163.13 352.24 172.3 347.69C177.645 345.061 183.271 343.048 189.07 341.69C192.83 340.8 191.24 335.01 187.48 335.91C171.572 339.748 157.084 348.034 145.71 359.8C142.31 363.37 139.62 367.52 136.5 371.29C133.18 375.29 129.41 379.17 124.58 381.16L128.27 384.85C128.312 384.701 128.369 384.557 128.44 384.42L128.59 384.03C128.463 384.337 128.443 384.387 128.53 384.18C128.76 383.67 128.99 383.18 129.26 382.68C129.408 382.402 129.575 382.135 129.76 381.88L129.59 382.1C129.84 381.86 129.79 381.88 129.45 382.16C128.84 382.32 128.13 382.61 127.55 382.16L126.36 380.08C126.342 379.729 126.429 379.381 126.61 379.08C126.53 379.28 126.15 379.63 126.61 379.08C126.47 379.24 126.33 379.4 126.17 379.56C125.853 379.891 125.52 380.204 125.17 380.5C124.92 380.71 124.65 380.89 125.06 380.59L124.59 380.94C124.35 381.1 124.11 381.27 123.86 381.42L128.27 384.81C128.613 383.779 129.035 382.777 129.53 381.81L124.01 379.57C123.934 380.406 123.66 381.212 123.21 381.92L127.92 385.57C134.3 370.66 138.76 354.9 146.39 340.57C149.693 334.089 153.913 328.117 158.92 322.84C164.23 317.4 170.58 313.2 177.17 309.46C184.69 305.19 192.53 301.46 199.97 297.08C203.29 295.08 200.28 289.92 196.97 291.9L196.95 291.85Z" fill="#FA8072"/>
<path d="M99.58 405.47C115.181 417.126 132.155 426.822 150.12 434.34C159.009 438.073 168.12 441.256 177.4 443.87C187.347 446.785 197.55 448.744 207.87 449.72C218.148 450.721 228.523 449.851 238.49 447.15C247.677 444.348 256.359 440.102 264.21 434.57C271.982 429.167 279.382 423.247 286.36 416.85C293.172 410.754 299.62 404.263 305.67 397.41C317.73 383.68 327.95 368.41 334.94 351.46C335.8 349.38 336.61 347.27 337.37 345.15C337.582 344.382 337.481 343.562 337.088 342.869C336.695 342.176 336.043 341.667 335.275 341.455C334.507 341.243 333.687 341.344 332.994 341.737C332.301 342.13 331.792 342.782 331.58 343.55C325.71 360.03 316.41 375.18 305.29 388.63C293.938 402.327 281.023 414.651 266.81 425.35C259.48 430.86 251.61 435.93 243.03 439.26C233.897 442.717 224.17 444.335 214.41 444.02C204.479 443.679 194.619 442.209 185.02 439.64C157.492 432.693 131.478 420.737 108.28 404.37C106.367 403.037 104.477 401.663 102.61 400.25C101.31 399.25 99.26 400.04 98.51 401.32C98.1243 402.011 98.0203 402.824 98.2196 403.59C98.419 404.356 98.9063 405.015 99.58 405.43V405.47Z" fill="#FA8072"/>
<path d="M232.91 4.66999C232.91 4.66999 166.98 9.56999 137.28 24.32C100.28 42.69 64.89 67.4 43.36 102.66C24.77 133.1 17.85 169.04 11.68 204.16C11.3 206.36 10.91 208.56 10.53 210.77L13.08 208.01C13.08 208.01 18.88 208.16 29.16 208.38C86.4 209.63 282.4 213.08 388.16 204.77C401.81 203.69 429.16 205.06 429.16 205.06L432.51 212.49C426.956 186.13 418.515 160.462 407.34 135.95C386.87 91.14 355.82 49.22 312.12 26.57C284.29 12.17 252.85 6.29999 221.68 2.98999" fill="#FA8072"/>
<path d="M232.91 1.67001C221.78 2.50001 210.68 3.87 199.65 5.45C180.47 8.2 160.72 11.5 142.65 18.7C131.9 22.98 121.65 28.88 111.74 34.8C100.638 41.399 90.0357 48.8056 80.0199 56.96C59.6699 73.65 42.77 94.12 31.79 118.13C20.09 143.71 14.47 171.43 9.56996 198.97C8.9033 202.63 8.26328 206.297 7.64995 209.97C7.18995 212.69 10.4599 215.29 12.6499 212.89L15.19 210.13L13.07 211.01C32.83 211.52 52.5999 211.87 72.3699 212.19C99.8433 212.617 127.313 212.91 154.78 213.07C187.233 213.237 219.68 213.143 252.12 212.79C283.47 212.4 314.84 211.72 346.12 210.29C359.66 209.67 373.2 208.92 386.72 207.87C399.72 206.87 412.94 207.37 426 207.92L429.06 208.06L426.53 206.57L429.88 214C431.34 217.24 436.03 214.84 435.36 211.69C426.36 169.29 410.28 127.42 385.97 91.38C375.203 75.145 362.365 60.3838 347.78 47.47C332.337 33.9659 314.637 23.2862 295.49 15.92C271.86 6.86001 246.69 2.69001 221.63 0.0100098C220.834 0.0100098 220.071 0.326078 219.509 0.888687C218.946 1.4513 218.63 2.21436 218.63 3.01001C218.645 3.80085 218.966 4.55502 219.526 5.11433C220.085 5.67365 220.839 5.99465 221.63 6.01001C243.63 8.36001 265.7 12.01 286.73 19.12C305.74 25.5112 323.45 35.2587 339.02 47.9C368.88 72.27 390.46 105.42 406.02 140.35C416.408 163.768 424.308 188.212 429.59 213.28L435.07 210.97L431.71 203.57C431.445 203.119 431.066 202.745 430.612 202.485C430.158 202.226 429.643 202.089 429.12 202.09C417.85 201.53 406.52 201.18 395.23 201.46C381.78 201.79 368.32 203.22 354.88 203.9C323.28 205.51 291.63 206.27 259.99 206.72C226.837 207.187 193.683 207.32 160.53 207.12C132.01 207 103.49 206.713 74.97 206.26C64.3766 206.087 53.7833 205.9 43.19 205.7L31.19 205.45C25.24 205.33 19.19 204.78 13.19 205.04C11.05 205.13 9.74996 207.23 8.40996 208.68L13.41 211.59C18.1 184.28 22.87 156.59 32.94 130.68C42.4292 106.41 57.5353 84.7342 77.0199 67.43C95.5499 50.77 117.25 37.21 139.71 26.43C147.77 22.59 156.5 20.12 165.14 17.99C174.74 15.63 184.46 13.81 194.22 12.27C206.84 10.27 219.52 8.84 232.22 7.7L232.87 7.65001C236.69 7.36001 236.72 1.36001 232.87 1.65001L232.91 1.67001Z" fill="#FA8072"/>
<path d="M423.12 207.67C433.901 209.061 444.774 209.609 455.64 209.31C465.35 209 475.93 207.48 483.18 200.39C486.71 196.94 489.18 192.26 489 187.23C489 186.434 488.684 185.671 488.121 185.109C487.559 184.546 486.796 184.23 486 184.23C465.755 185.722 445.72 189.318 426.22 194.96C423.5 195.75 423.22 200.1 426.22 200.74C427.008 201.006 427.85 201.071 428.67 200.93C429.75 200.45 430.73 199.771 431.56 198.93C432.953 197.809 434.288 196.617 435.56 195.36C438.324 192.649 440.853 189.709 443.12 186.57C447.995 179.667 451.86 172.104 454.6 164.11C456.282 159.311 457.618 154.399 458.6 149.41C458.99 147.41 457.22 144.79 454.91 145.72C440.21 151.61 430.61 165.72 425.13 180.06C423.338 184.768 421.959 189.623 421.01 194.57C420.82 195.336 420.93 196.145 421.319 196.832C421.708 197.519 422.345 198.03 423.1 198.26C423.867 198.472 424.686 198.371 425.378 197.979C426.07 197.587 426.578 196.936 426.79 196.17C429.68 181.32 436.28 166.25 448.08 156.54C449.348 155.507 450.684 154.562 452.08 153.71C452.86 153.23 453.66 152.78 454.48 152.37C454.84 152.19 455.2 152.01 455.56 151.85L456.11 151.6C456.232 151.536 456.359 151.482 456.49 151.44L452.8 147.75C449.93 162.3 444.08 176.99 434.23 188.1C432.96 189.52 431.63 190.89 430.23 192.19C429.57 192.8 428.9 193.39 428.23 193.97C427.56 194.55 427.09 194.89 426.37 195.43L428.68 195.12L427.82 194.94V200.72C446.799 195.206 466.301 191.684 486.01 190.21L483.01 187.21C483.01 188.835 482.674 190.443 482.022 191.932C481.369 193.421 480.415 194.758 479.22 195.86C476.326 198.633 472.759 200.601 468.87 201.57C464.47 202.687 459.95 203.264 455.41 203.29C450.41 203.44 445.41 203.37 440.41 203.14C434.62 202.88 428.85 202.37 423.1 201.65C421.49 201.45 420.1 203.17 420.1 204.65C420.118 205.44 420.44 206.193 420.999 206.752C421.557 207.31 422.31 207.632 423.1 207.65L423.12 207.67Z" fill="#FA8072"/>
<path d="M280.74 88.22C276.54 87.33 271.81 86.5 267.67 88.14C262.93 90.03 260.67 94.29 260.15 99.14C259.894 101.448 259.965 103.781 260.36 106.07C260.906 108.597 262.416 110.81 264.57 112.24C268.44 115.14 273.5 118.13 278.52 117.17C283.54 116.21 287.4 110.37 284.74 105.57L282.12 110.11L287.62 109.78C290.07 109.62 291.77 106.52 289.74 104.65C286.715 101.831 282.853 100.075 278.74 99.65C277.6 99.53 276.45 99.65 275.31 99.53L267.05 98.89L241.69 96.95L235.32 96.46C232.45 96.24 231.08 100.86 233.8 102.05L244.7 106.84L243.32 105.05L245.41 110.62C245.597 111.326 246.035 111.94 246.642 112.346C247.25 112.752 247.984 112.923 248.708 112.826C249.432 112.729 250.096 112.371 250.575 111.819C251.054 111.268 251.315 110.56 251.31 109.83C251.366 105.006 250.692 100.202 249.31 95.58C248.579 93.2304 247.676 90.9376 246.61 88.72C245.67 86.72 244.61 84.4 242.84 83.07C242.306 82.671 241.691 82.3945 241.038 82.2601C240.385 82.1257 239.711 82.1366 239.063 82.2922C238.414 82.4478 237.809 82.7442 237.288 83.1603C236.767 83.5765 236.345 84.1021 236.05 84.7C234.924 87.0076 233.959 89.3899 233.16 91.83C231.34 96.61 229.693 101.447 228.22 106.34L231.11 104.14L216.26 105.77L218.38 106.65L208.32 94.42L206.21 99.57L213.11 98.88C215.38 98.66 217.84 98.66 219.93 97.66C223.93 95.74 224.36 90.54 221.85 87.25C219.34 83.96 214.6 83.2 210.68 83.6C208.504 83.7037 206.422 84.5148 204.75 85.91C203.309 87.3324 202.371 89.1863 202.08 91.19C201.08 96.48 200.67 101.92 199.98 107.26L205.57 105.75L195.57 89.25L194.12 86.88C192.39 84.03 187.63 85.88 188.63 89.19C189.63 92.5 188.35 96.19 186.87 99.29C186.237 100.853 185.436 102.341 184.48 103.73C184.109 104.202 183.621 104.569 183.066 104.797C182.511 105.025 181.906 105.105 181.31 105.03C179.777 104.954 178.269 104.616 176.85 104.03C175.93 103.69 177.1 104.08 176.19 103.76C175.47 103.5 176.13 103.54 176.19 103.88C176.11 102.98 176.19 102.03 176.19 101.11V88.5C176.19 86.42 173.56 84.5 171.68 85.91L143.92 106.85L139.92 109.85C139.351 110.183 138.907 110.694 138.657 111.305C138.407 111.915 138.366 112.591 138.539 113.227C138.712 113.864 139.09 114.425 139.614 114.825C140.139 115.225 140.78 115.441 141.44 115.44C147.171 115.751 152.882 114.536 157.99 111.92C160.556 110.747 162.875 109.094 164.82 107.05C167.14 104.31 166.18 101.05 164.74 98.11C162.393 93.5578 158.458 90.0246 153.68 88.18C151.306 87.2098 148.754 86.7498 146.19 86.83C144.588 86.8114 143.031 87.3574 141.791 88.3722C140.551 89.387 139.708 90.8059 139.41 92.38C138.776 95.8853 138.442 99.4381 138.41 103C138.26 106.79 138.28 110.59 138.46 114.38C138.475 115.171 138.796 115.925 139.356 116.484C139.915 117.044 140.669 117.365 141.46 117.38C142.256 117.38 143.019 117.064 143.581 116.501C144.144 115.939 144.46 115.176 144.46 114.38C144.197 108.94 144.283 103.489 144.72 98.06C144.8 97.06 144.92 95.47 145.03 94.69C145.087 94.2677 145.174 93.85 145.29 93.44C145.35 93.25 145.34 92.93 145.63 92.82C146.293 92.722 146.967 92.722 147.63 92.82C148.491 92.8861 149.342 93.0437 150.17 93.29C153.537 94.2526 156.464 96.3561 158.45 99.24C158.987 100.029 159.442 100.87 159.81 101.75C159.81 101.81 160.26 103.11 160.28 103.06C160.03 103.65 158.78 104.34 158.28 104.71C157.317 105.37 156.315 105.971 155.28 106.51C150.998 108.715 146.196 109.714 141.39 109.4L142.9 114.99L170.66 94.05L174.66 91.05L170.14 88.46V100.83C170.14 102.83 169.89 105.1 170.99 106.89C172.09 108.68 173.99 109.35 175.8 109.97C179.18 111.12 183.08 111.59 186.35 109.85C189.62 108.11 191.21 104.26 192.62 101.05C194.5 96.79 195.81 92.19 194.42 87.58L188.94 89.89L198.94 106.38L200.37 108.76C200.715 109.321 201.23 109.756 201.84 110.002C202.45 110.249 203.123 110.294 203.76 110.13C204.38 109.934 204.925 109.551 205.318 109.034C205.712 108.517 205.936 107.89 205.96 107.24C206.55 102.65 207.06 98.05 207.73 93.47C207.89 92.47 208.19 90.72 208.93 90.18C209.93 89.4 211.6 89.46 213.09 89.52C214.472 89.4336 215.839 89.849 216.94 90.69C217.3 91.03 217.28 91.25 217.47 91.88C217.32 91.37 217.47 92.39 217.47 91.82C217.433 92.0176 217.38 92.2116 217.31 92.4C217.31 92.3417 217.323 92.2842 217.349 92.2321C217.375 92.1799 217.413 92.1347 217.46 92.1C216.23 92.82 214.32 92.74 212.83 92.89L206.17 93.55C205.577 93.5505 204.997 93.7268 204.505 94.0565C204.012 94.3861 203.628 94.8545 203.401 95.4023C203.174 95.9502 203.115 96.553 203.23 97.1346C203.346 97.7162 203.631 98.2505 204.05 98.67L209.05 104.79C210.61 106.69 212.05 108.72 213.77 110.52C215.49 112.32 217.39 111.65 219.51 111.42L231.12 110.17C231.771 110.149 232.399 109.926 232.917 109.532C233.435 109.138 233.817 108.592 234.01 107.97C235.223 103.97 236.537 100.03 237.95 96.15C238.67 94.1967 239.413 92.2567 240.18 90.33C240.6 89.5022 240.954 88.643 241.24 87.76C241.62 87.26 241.39 87.26 240.54 87.76C240.454 87.8563 240.348 87.9332 240.23 87.9859C240.112 88.0386 239.984 88.0659 239.855 88.0659C239.726 88.0659 239.598 88.0386 239.48 87.9859C239.362 87.9332 239.256 87.8563 239.17 87.76C239.33 87.76 239.6 88.32 239.68 88.46C243.495 94.9279 245.457 102.321 245.35 109.83L251.24 109.03C250.57 107.25 249.92 105.47 249.24 103.7C248.994 102.884 248.475 102.178 247.77 101.7C246.594 101.095 245.382 100.564 244.14 100.11L236.87 96.91L235.36 102.5L251.8 103.76L274.2 105.48C274.84 105.48 275.49 105.61 276.14 105.63C277.698 105.581 279.254 105.759 280.76 106.16C282.537 106.706 284.167 107.646 285.53 108.91L287.65 103.79L282.15 104.12C281.621 104.119 281.101 104.259 280.644 104.523C280.186 104.788 279.806 105.17 279.543 105.629C279.28 106.087 279.144 106.608 279.146 107.136C279.149 107.665 279.292 108.184 279.56 108.64C279.76 109.02 279.68 108.64 279.71 109.06C279.71 108.53 279.63 109.47 279.71 108.94C279.71 109.06 279.48 109.74 279.63 109.38C279.497 109.644 279.35 109.901 279.19 110.15C278.9 110.52 278.534 110.823 278.116 111.039C277.699 111.255 277.239 111.378 276.77 111.4C275.228 111.355 273.723 110.914 272.4 110.12C270.837 109.313 269.342 108.38 267.93 107.33C267.447 107.013 267.039 106.594 266.734 106.104C266.428 105.614 266.232 105.063 266.16 104.49C265.97 102.849 265.97 101.191 266.16 99.55C266.37 97.24 267.43 94.78 269.48 93.87C272.42 92.58 276.06 93.35 279.2 94.02C279.967 94.2128 280.779 94.102 281.467 93.7107C282.154 93.3195 282.664 92.678 282.89 91.92C282.995 91.5398 283.023 91.1427 282.974 90.7515C282.926 90.3602 282.8 89.9824 282.605 89.6396C282.41 89.2969 282.149 88.996 281.838 88.7541C281.526 88.5123 281.17 88.3342 280.79 88.23L280.74 88.22Z" fill="white"/>
<path d="M290.33 158.13C285.52 157.512 280.799 156.338 276.26 154.63L275.46 160.52C277.828 160.263 280.22 160.705 282.34 161.79C282.99 162.16 282.91 162.4 282.97 163.07C283.101 164.188 283.128 165.317 283.05 166.44C282.89 168.12 282.05 169.02 280.05 169.44C278.242 169.801 276.372 169.691 274.62 169.12C272.81 168.593 271.158 167.625 269.813 166.305C268.468 164.984 267.47 163.35 266.91 161.55C266.352 159.516 266.261 157.381 266.644 155.307C267.026 153.233 267.873 151.271 269.12 149.57C270.456 147.808 272.327 146.527 274.452 145.917C276.578 145.308 278.843 145.404 280.91 146.19L282.5 140.4L257.5 136.3L253.92 135.72C253.479 135.612 253.019 135.602 252.573 135.693C252.128 135.784 251.709 135.973 251.345 136.245C250.982 136.518 250.683 136.868 250.471 137.27C250.259 137.672 250.139 138.116 250.12 138.57C249.227 147.539 246.932 156.312 243.32 164.57L247.43 163.49C244.04 161.02 241.91 157.16 239.79 153.43C237.49 149.37 235.1 145.25 231.56 142.14C229.19 140.06 226.08 142.14 226.56 145.06C227.532 151.324 227.937 157.663 227.77 164L231.56 161.11L207.69 155.3L204.34 154.49C203.96 154.386 203.563 154.357 203.172 154.406C202.78 154.455 202.403 154.581 202.06 154.776C201.717 154.971 201.416 155.231 201.175 155.543C200.933 155.854 200.754 156.21 200.65 156.59C200.546 156.97 200.517 157.367 200.566 157.758C200.615 158.15 200.741 158.527 200.936 158.87C201.131 159.213 201.391 159.513 201.703 159.755C202.014 159.997 202.37 160.176 202.75 160.28C205.913 161.462 209.254 162.101 212.63 162.17L210.04 160.69L214.23 166.84C214.647 167.512 215.305 167.998 216.07 168.199C216.834 168.4 217.647 168.3 218.34 167.92C219.017 167.508 219.508 166.849 219.708 166.082C219.908 165.315 219.801 164.5 219.41 163.81C215.425 156.804 212.694 149.156 211.34 141.21C211.179 140.647 210.856 140.143 210.412 139.761C209.967 139.379 209.421 139.135 208.84 139.06C208.256 138.989 207.663 139.086 207.132 139.339C206.601 139.592 206.153 139.991 205.84 140.49C200.839 147.351 197.02 155 194.54 163.12L199.54 161.8C195.32 158 191.21 154.05 186.88 150.4C185.772 149.665 184.521 149.171 183.21 148.95L179.93 148.01L172.93 146.01L172.13 151.9C173.525 152.02 174.903 152.292 176.24 152.71C176.817 152.883 177.384 153.087 177.94 153.32C178.27 153.46 178.58 153.65 178.94 153.79C179.3 153.93 179.11 154.01 179.01 153.79L178.6 152.28C178.6 152.37 178.7 152.05 178.71 152.04C178.58 152.235 178.479 152.447 178.41 152.67C178.058 153.395 177.86 154.185 177.83 154.99C177.936 156.219 178.113 157.441 178.36 158.65C178.36 158.74 178.28 159.22 178.36 158.78C178.36 158.86 178.16 159.27 178.36 158.93C178.25 159.11 178.17 159.3 178.06 159.47C178.11 159.39 178.41 159.08 177.94 159.62C177.454 160.189 176.826 160.621 176.12 160.87C174.359 161.402 172.465 161.289 170.78 160.55C168.755 159.71 166.829 158.647 165.04 157.38C164.371 157.035 163.792 156.539 163.35 155.93C163.023 154.931 162.934 153.869 163.09 152.83C163.092 150.537 163.357 148.252 163.88 146.02C164.88 142.27 167.07 138.84 170.49 137.32C172.711 136.469 175.146 136.35 177.44 136.98C180.33 137.59 183.14 138.42 186.09 138.75C187.7 138.93 189.09 137.24 189.09 135.75C189.072 134.96 188.75 134.207 188.191 133.648C187.633 133.09 186.88 132.768 186.09 132.75C182.55 132.36 179.19 131 175.63 130.66C172.339 130.337 169.033 131.103 166.22 132.84C160.3 136.53 157.82 143.07 157.22 149.76C156.9 153.38 156.58 157.6 159.27 160.45C160.394 161.53 161.655 162.457 163.02 163.21C164.438 164.129 165.922 164.941 167.46 165.64C170.57 167.01 174.06 167.79 177.39 166.74C180.33 165.83 183.13 163.74 184.04 160.67C184.505 158.931 184.424 157.092 183.81 155.4V154.99C183.65 155.48 183.67 155.51 183.87 155.07C184.192 154.561 184.41 153.994 184.51 153.4C184.644 152.782 184.63 152.14 184.469 151.528C184.307 150.916 184.002 150.351 183.58 149.88C182.28 148.4 180.07 147.66 178.25 147.06C176.267 146.429 174.216 146.04 172.14 145.9C168.7 145.64 168.14 150.9 171.35 151.8L183.98 155.42L182.66 154.65L195.32 166.05C195.691 166.418 196.152 166.682 196.656 166.817C197.161 166.952 197.692 166.953 198.197 166.82C198.702 166.686 199.164 166.423 199.536 166.057C199.909 165.69 200.179 165.233 200.32 164.73C202.684 157.125 206.312 149.972 211.05 143.57L205.57 142.85C207.051 151.292 209.988 159.413 214.25 166.85L219.43 163.85L215.87 158.57L215.29 157.73C214.919 157.198 214.416 156.772 213.83 156.493C213.245 156.214 212.597 156.093 211.95 156.14C209.348 155.993 206.786 155.433 204.36 154.48L202.77 160.27L226.65 166.07L229.99 166.88C230.435 167.003 230.903 167.022 231.357 166.935C231.811 166.847 232.238 166.656 232.606 166.377C232.974 166.097 233.272 165.736 233.477 165.322C233.683 164.908 233.79 164.452 233.79 163.99C233.934 157.114 233.455 150.24 232.36 143.45L227.36 146.37C230.81 149.37 232.88 153.37 235.18 157.37C237.64 161.68 240.39 165.7 244.44 168.65C244.78 168.85 245.156 168.981 245.547 169.035C245.937 169.09 246.335 169.067 246.717 168.967C247.099 168.868 247.457 168.694 247.772 168.456C248.086 168.218 248.351 167.92 248.55 167.58C252.575 158.366 255.13 148.576 256.12 138.57L252.32 141.46L277.32 145.56L280.9 146.15C281.28 146.254 281.677 146.283 282.068 146.234C282.459 146.185 282.837 146.059 283.18 145.864C283.522 145.669 283.823 145.409 284.065 145.097C284.307 144.786 284.485 144.43 284.59 144.05C284.694 143.67 284.723 143.273 284.674 142.882C284.625 142.49 284.499 142.113 284.304 141.77C284.109 141.427 283.849 141.127 283.537 140.885C283.226 140.643 282.87 140.464 282.49 140.36C279.501 139.336 276.279 139.21 273.219 139.995C270.159 140.78 267.396 142.444 265.27 144.78C263.136 147.24 261.633 150.183 260.891 153.353C260.148 156.524 260.189 159.828 261.01 162.98C261.871 165.862 263.454 168.477 265.608 170.577C267.762 172.677 270.417 174.192 273.32 174.98C279.32 176.66 287.63 175.11 288.81 167.92C289.34 164.71 289.37 160.13 286.88 157.7C284.08 154.99 279.14 154.2 275.41 154.47C274.678 154.462 273.969 154.722 273.416 155.2C272.863 155.678 272.503 156.342 272.405 157.067C272.306 157.792 272.476 158.527 272.882 159.136C273.288 159.744 273.903 160.183 274.61 160.37C279.671 162.211 284.93 163.457 290.28 164.08C291.89 164.28 293.28 162.56 293.28 161.08C293.262 160.29 292.94 159.537 292.382 158.978C291.823 158.42 291.07 158.098 290.28 158.08L290.33 158.13Z" fill="white"/>
</g>
<defs>
<clipPath id="clip0">
<rect width="489" height="480.9" fill="white"/>
</clipPath>
</defs>
</svg>
