<svg width="512" height="512" viewBox="0 0 512 512" fill="none" xmlns="http://www.w3.org/2000/svg">
<path d="M256 503.582C392.92 503.582 503.916 392.586 503.916 255.666C503.916 118.746 392.92 7.75 256 7.75C119.08 7.75 8.08398 118.746 8.08398 255.666C8.08398 392.586 119.08 503.582 256 503.582Z" fill="#FA8072"/>
<path d="M256 7.74902C245.04 7.74902 234.248 8.46902 223.663 9.84802C345.303 25.694 439.242 129.706 439.242 255.665C439.242 381.624 345.303 485.636 223.663 501.482C234.248 502.861 245.04 503.581 256 503.581C392.92 503.581 503.916 392.585 503.916 255.665C503.916 118.745 392.921 7.74902 256 7.74902Z" fill="#F06656"/>
<path d="M172.204 404.167L149.906 367.605C148.664 365.57 146.454 364.328 144.069 364.328H100.614C96.838 364.328 93.777 361.267 93.777 357.491V160.733C93.777 159.493 94.113 158.278 94.751 157.216L124.356 107.874C125.591 105.815 127.817 104.555 130.219 104.555H400.608C404.384 104.555 407.445 107.616 407.445 111.392V274.949C407.445 276.762 406.725 278.501 405.442 279.783L322.9 362.327C321.618 363.609 319.879 364.33 318.066 364.33H238.548C236.183 364.33 233.985 365.552 232.738 367.563L210 404.214C208.753 406.224 206.556 407.447 204.19 407.447H178.042C175.658 407.444 173.446 406.202 172.204 404.167Z" fill="#E05F50"/>
<path d="M170.653 321.213H151.573C149.417 321.213 147.67 319.466 147.67 317.31V162.352C147.67 160.196 149.417 158.45 151.573 158.45H371.204C373.36 158.45 375.107 160.197 375.107 162.353V254.607C375.107 255.642 374.696 256.635 373.964 257.366L311.261 320.069C310.529 320.801 309.536 321.212 308.502 321.212H211.999C210.599 321.212 209.305 321.962 208.611 323.178L194.715 347.495C193.217 350.116 189.437 350.116 187.938 347.495L174.042 323.178C173.347 321.963 172.054 321.213 170.653 321.213Z" fill="white"/>
<path d="M201.566 263.89V204.994C201.566 203.101 203.101 201.566 204.994 201.566H231.553C233.446 201.566 234.981 203.101 234.981 204.994V263.89C234.981 265.783 233.446 267.318 231.553 267.318H204.994C203.101 267.318 201.566 265.783 201.566 263.89Z" fill="#E05F50"/>
<path d="M277.019 263.89V204.994C277.019 203.101 278.554 201.566 280.447 201.566H307.006C308.899 201.566 310.434 203.101 310.434 204.994V263.89C310.434 265.783 308.899 267.318 307.006 267.318H280.447C278.554 267.318 277.019 265.783 277.019 263.89Z" fill="#E05F50"/>
</svg>
