<svg width="512" height="512" viewBox="0 0 512 512" fill="none" xmlns="http://www.w3.org/2000/svg">
<path d="M502 50V462C502 484.09 484.09 502 462 502H50C27.9102 502 10 484.09 10 462V50C10 27.9102 27.9102 10 50 10H462C484.09 10 502 27.9102 502 50Z" fill="#FA8072"/>
<path d="M416 116V336L356 396H256L216 436H176V396H96V156L136 116H416Z" fill="#F0F0FA"/>
<path d="M376 156V296L336 336H256L216 376V336H156V156H376Z" fill="#FA8072"/>
<path d="M386 53C386 58.5234 381.523 63 376 63C370.477 63 366 58.5234 366 53C366 47.4766 370.477 43 376 43C381.523 43 386 47.4766 386 53Z" fill="black"/>
<path d="M416 106H136C133.348 106 130.805 107.055 128.93 108.93L88.9297 148.93C87.0547 150.805 86 153.348 86 156V396C86 401.523 90.4766 406 96 406H166V436C166 441.523 170.477 446 176 446H216C218.652 446 221.195 444.945 223.07 443.07L260.141 406H356C358.652 406 361.195 404.945 363.07 403.07L423.07 343.07C424.945 341.195 426 338.652 426 336V116C426 110.477 421.523 106 416 106ZM406 331.855L351.859 386H256C253.348 386 250.805 387.055 248.93 388.93L211.859 426H186V396C186 390.477 181.523 386 176 386H106V160.145L140.141 126H406V331.855Z" fill="black"/>
<path d="M462 0H50C22.4297 0 0 22.4297 0 50V462C0 489.57 22.4297 512 50 512H462C489.57 512 512 489.57 512 462V50C512 22.4297 489.57 0 462 0ZM492 462C492 478.543 478.543 492 462 492H50C33.457 492 20 478.543 20 462V50C20 33.457 33.457 20 50 20H462C478.543 20 492 33.457 492 50V462Z" fill="black"/>
<path d="M136 63H336C341.523 63 346 58.5234 346 53C346 47.4766 341.523 43 336 43H136C130.477 43 126 47.4766 126 53C126 58.5234 130.477 63 136 63Z" fill="black"/>
<path d="M156 346H206V376C206 384.957 216.824 389.316 223.07 383.07L260.141 346H336C338.652 346 341.195 344.945 343.07 343.07L383.07 303.07C384.945 301.195 386 298.652 386 296V156C386 150.477 381.523 146 376 146H156C150.477 146 146 150.477 146 156V336C146 341.523 150.477 346 156 346ZM166 166H366V291.855L331.859 326H256C253.348 326 250.805 327.055 248.93 328.93L226 351.855V336C226 330.477 221.523 326 216 326H166V166Z" fill="black"/>
<path d="M256 286C261.523 286 266 281.523 266 276V216C266 210.477 261.523 206 256 206C250.477 206 246 210.477 246 216V276C246 281.523 250.477 286 256 286Z" fill="black"/>
<path d="M316 286C321.523 286 326 281.523 326 276V216C326 210.477 321.523 206 316 206C310.477 206 306 210.477 306 216V276C306 281.523 310.477 286 316 286Z" fill="black"/>
</svg>
