<svg width="512" height="512" viewBox="0 0 512 512" fill="none" xmlns="http://www.w3.org/2000/svg">
<path d="M491.719 135.652C486.061 114.14 469.389 97.197 448.221 91.447C409.853 80.999 295.348 80.999 256 80.999C216.652 80.999 102.147 80.999 63.779 91.447C42.611 97.197 25.939 114.14 20.281 135.652C10 174.644 10 255.999 10 255.999C10 255.999 10 337.353 20.281 376.346C25.939 397.858 42.611 414.801 63.779 420.551C102.147 430.999 198 430.999 256 430.999C314 430.999 409.853 430.999 448.221 420.551C469.389 414.801 486.061 397.858 491.719 376.346C502 337.353 502 255.999 502 255.999C502 255.999 502 174.644 491.719 135.652Z" fill="#FA8072"/>
<path d="M258.503 91.003C258.494 91.003 258.485 91.003 258.476 91.003L257.751 91.001C252.236 90.986 247.776 86.51 247.778 80.998C247.778 80.99 247.778 80.982 247.778 80.974C247.793 75.46 252.268 71.001 257.778 71.001C257.788 71.001 257.796 71.001 257.806 71.001L258.53 71.003C264.045 71.018 268.505 75.494 268.503 81.006C268.503 81.014 268.503 81.022 268.503 81.03C268.488 86.544 264.013 91.003 258.503 91.003Z" fill="black"/>
<path d="M256 440.999C249.664 440.999 100.359 440.876 61.151 430.199C36.544 423.515 17.175 403.854 10.609 378.889C0.121 339.107 0 259.374 0 255.999C0 252.624 0.121 172.891 10.611 133.103C17.175 108.144 36.544 88.482 61.157 81.797C87.058 74.744 159.928 72.226 216.497 71.357C222.005 71.309 226.565 75.68 226.65 81.202C226.734 86.724 222.327 91.27 216.805 91.354C138.465 92.559 85.053 96.018 66.406 101.096C48.67 105.914 34.703 120.129 29.951 138.196C20.12 175.484 20 255.198 20 255.999C20 256.799 20.12 336.513 29.95 373.796C34.703 391.869 48.67 406.084 66.4 410.9C103.054 420.881 254.475 420.999 256 420.999C257.525 420.999 408.946 420.882 445.594 410.902C463.33 406.084 477.297 391.869 482.049 373.802C491.88 336.513 492 256.799 492 255.998C492 255.198 491.88 175.484 482.05 138.201C477.297 120.128 463.33 105.913 445.6 101.097C427.353 96.128 375.475 92.693 299.515 91.423C293.993 91.331 289.591 86.779 289.683 81.257C289.775 75.735 294.359 71.35 299.849 71.425C354.729 72.342 425.474 74.887 450.849 81.798C475.456 88.482 494.825 108.143 501.391 133.108C511.879 172.891 512 252.624 512 255.999C512 259.374 511.879 339.107 501.389 378.895C494.825 403.854 475.456 423.516 450.843 430.201C411.641 440.876 262.336 440.999 256 440.999Z" fill="black"/>
<path d="M208.084 185.521L332.084 257.521L208.084 329.521V185.521Z" fill="white"/>
<path d="M58 331.021C52.477 331.021 48 326.544 48 321.021V239.521C48 233.998 52.477 229.521 58 229.521C63.523 229.521 68 233.998 68 239.521V321.021C68 326.544 63.523 331.021 58 331.021Z" fill="black"/>
<path d="M58 204.139C52.477 204.139 48 199.662 48 194.139V194.021C48 188.498 52.477 184.021 58 184.021C63.523 184.021 68 188.498 68 194.021V194.139C68 199.662 63.523 204.139 58 204.139Z" fill="black"/>
<path d="M208.084 339.521C206.361 339.521 204.639 339.077 203.095 338.188C199.995 336.403 198.084 333.099 198.084 329.521V185.521C198.084 181.944 199.995 178.639 203.095 176.854C206.195 175.069 210.012 175.076 213.106 176.873L337.106 248.873C340.188 250.663 342.085 253.957 342.085 257.521C342.085 261.085 340.189 264.379 337.106 266.169L213.106 338.169C211.554 339.071 209.819 339.521 208.084 339.521ZM218.084 202.891V312.151L312.169 257.521L218.084 202.891Z" fill="black"/>
</svg>
