<svg width="512" height="512" viewBox="0 0 512 512" fill="none" xmlns="http://www.w3.org/2000/svg">
<path d="M255.916 503.832C392.836 503.832 503.832 392.836 503.832 255.916C503.832 118.996 392.836 8 255.916 8C118.996 8 8 118.996 8 255.916C8 392.836 118.996 503.832 255.916 503.832Z" fill="#FA8072"/>
<path d="M256 8.08398C245.04 8.08398 234.248 8.80398 223.663 10.183C345.304 26.029 439.242 130.04 439.242 256C439.242 381.96 345.303 485.971 223.663 501.817C234.248 503.196 245.04 503.916 256 503.916C392.921 503.916 503.916 392.92 503.916 256C503.916 119.08 392.921 8.08398 256 8.08398Z" fill="#F06656"/>
<path d="M256 373C216.852 373 177.337 370.522 138.553 365.633C131.161 364.701 125.252 358.363 124.186 350.218C115.938 287.369 115.938 223.633 124.185 160.781C125.254 152.637 131.162 146.297 138.555 145.367C177.336 140.478 216.851 138 256 138C295.149 138 334.664 140.478 373.447 145.367C380.839 146.299 386.748 152.637 387.814 160.781C396.062 223.631 396.062 287.367 387.815 350.219C386.746 358.363 380.838 364.702 373.446 365.633C334.662 370.521 295.147 373 256 373Z" fill="white"/>
<path d="M203.234 191.516L312.723 251.566C315.759 253.231 315.759 257.769 312.723 259.434L203.234 319.485C200.4 321.038 197 318.893 197 315.551V195.449C197 192.108 200.401 189.961 203.234 191.516Z" fill="#E05F50"/>
<path d="M392.785 160.104C391.351 149.157 383.436 140.638 373.537 139.389C295.545 129.537 216.455 129.538 138.464 139.389C128.564 140.639 120.65 149.157 119.215 160.105C110.928 223.404 110.928 287.594 119.215 350.895C120.649 361.841 128.564 370.361 138.463 371.61C177.46 376.536 216.729 379 256 379C272.717 379 289.434 378.548 306.129 377.654C309.345 377.481 311.87 374.509 311.87 370.919C311.87 367.065 308.976 364.01 305.524 364.194C250.263 367.148 194.767 365.16 139.823 358.219C135.373 357.657 131.815 353.844 131.175 348.947C123.058 286.939 123.058 224.058 131.175 162.051C131.816 157.153 135.373 153.341 139.824 152.779C178.367 147.91 217.183 145.476 255.999 145.476C294.815 145.476 333.631 147.91 372.175 152.779C376.626 153.341 380.183 157.154 380.823 162.051C388.941 224.059 388.941 286.94 380.824 348.947C380.183 353.845 376.626 357.657 372.175 358.219C372.175 358.219 372.175 358.219 372.175 358.219C359.747 359.789 347.29 361.105 334.815 362.167C331.661 362.436 329.221 365.354 329.221 368.88V368.886C329.221 372.801 332.206 375.906 335.707 375.608C348.339 374.532 360.951 373.199 373.535 371.609C383.435 370.359 391.35 361.841 392.784 350.893C401.072 287.595 401.072 223.404 392.785 160.104Z" fill="#E05F50"/>
</svg>
